<?xml version="1.0" standalone="no"?>
<!DOCTYPE svg PUBLIC "-//W3C//DTD SVG 20010904//EN"
 "http://www.w3.org/TR/2001/REC-SVG-20010904/DTD/svg10.dtd">
<svg version="1.0" xmlns="http://www.w3.org/2000/svg"
 width="960.000000pt" height="720.000000pt" viewBox="0 0 960.000000 720.000000"
 preserveAspectRatio="xMidYMid meet">
<metadata>
Created by potrace 1.15, written by Peter Selinger 2001-2017
</metadata>
<g transform="translate(0.000000,720.000000) scale(0.100000,-0.100000)"
fill="#000000" stroke="none">
<path d="M3625 6583 c-633 -30 -1218 -287 -1666 -733 -432 -429 -686 -956
-760 -1575 -17 -146 -15 -465 5 -615 51 -384 188 -771 381 -1070 209 -326 527
-641 835 -827 540 -326 1163 -441 1773 -328 842 155 1555 736 1892 1540 25 60
44 113 42 119 -3 8 145 10 499 8 l504 -2 -2 242 -3 243 -614 0 -614 0 -32
-120 c-45 -170 -79 -261 -155 -411 -111 -220 -238 -392 -423 -571 -428 -415
-966 -628 -1571 -622 -193 2 -268 9 -444 45 -231 46 -476 140 -674 259 -459
276 -793 684 -953 1168 -330 997 135 2074 1100 2547 531 261 1134 301 1702
115 646 -212 1176 -733 1375 -1352 l43 -133 628 0 627 0 0 240 0 240 -513 0
-514 0 -47 104 c-65 142 -184 338 -291 481 -97 130 -315 356 -434 450 -439
346 -941 535 -1471 554 -96 3 -197 5 -225 4z"/>
<path d="M6626 5968 c5 -7 314 -375 688 -817 375 -442 727 -859 783 -925 57
-67 103 -123 103 -126 0 -5 -481 -577 -904 -1075 -187 -220 -645 -762 -665
-788 -13 -16 4 -17 302 -17 l315 0 573 678 c720 851 813 960 926 1092 l92 107
-511 604 c-281 332 -639 756 -796 942 l-285 337 -314 0 c-249 0 -313 -3 -307
-12z"/>
</g>
</svg>
